<mxfile host="app.diagrams.net" modified="2023-06-28T17:11:08.865Z" agent="Mozilla/5.0 (Windows NT 10.0; Win64; x64) AppleWebKit/537.36 (KHTML, like Gecko) Chrome/114.0.0.0 Safari/537.36" etag="jwvtGdXGfM7xEORyYoku" version="21.5.1" type="device">
  <diagram name="PÃ¡gina-1" id="-eIB52muY2_3GW21uWRk">
    <mxGraphModel dx="1434" dy="796" grid="1" gridSize="10" guides="1" tooltips="1" connect="1" arrows="1" fold="1" page="1" pageScale="1" pageWidth="827" pageHeight="1169" math="0" shadow="0">
      <root>
        <mxCell id="0" />
        <mxCell id="1" parent="0" />
        <mxCell id="O8XZWhRuaFC58gjSqEZz-20" style="edgeStyle=orthogonalEdgeStyle;rounded=0;orthogonalLoop=1;jettySize=auto;html=1;exitX=0.65;exitY=-0.017;exitDx=0;exitDy=0;entryX=0;entryY=0.5;entryDx=0;entryDy=0;exitPerimeter=0;" parent="1" source="O8XZWhRuaFC58gjSqEZz-12" target="O8XZWhRuaFC58gjSqEZz-16" edge="1">
          <mxGeometry relative="1" as="geometry">
            <Array as="points">
              <mxPoint x="280" y="209" />
              <mxPoint x="280" y="180" />
              <mxPoint x="444" y="180" />
            </Array>
          </mxGeometry>
        </mxCell>
        <mxCell id="O8XZWhRuaFC58gjSqEZz-21" value="2" style="edgeLabel;html=1;align=center;verticalAlign=middle;resizable=0;points=[];fontSize=20;" parent="O8XZWhRuaFC58gjSqEZz-20" vertex="1" connectable="0">
          <mxGeometry x="-0.0884" relative="1" as="geometry">
            <mxPoint as="offset" />
          </mxGeometry>
        </mxCell>
        <mxCell id="O8XZWhRuaFC58gjSqEZz-12" value="0" style="rounded=1;whiteSpace=wrap;html=1;fontSize=27;" parent="1" vertex="1">
          <mxGeometry x="240" y="210" width="60" height="60" as="geometry" />
        </mxCell>
        <mxCell id="XlvS5iwM-luPMJJT958l-1" style="edgeStyle=orthogonalEdgeStyle;rounded=0;orthogonalLoop=1;jettySize=auto;html=1;entryX=0.5;entryY=1;entryDx=0;entryDy=0;exitX=1;exitY=0.5;exitDx=0;exitDy=0;" edge="1" parent="1" source="O8XZWhRuaFC58gjSqEZz-16" target="O8XZWhRuaFC58gjSqEZz-17">
          <mxGeometry relative="1" as="geometry" />
        </mxCell>
        <mxCell id="XlvS5iwM-luPMJJT958l-2" value="&lt;font style=&quot;font-size: 20px;&quot;&gt;3&lt;/font&gt;" style="edgeLabel;html=1;align=center;verticalAlign=middle;resizable=0;points=[];fontSize=20;" vertex="1" connectable="0" parent="XlvS5iwM-luPMJJT958l-1">
          <mxGeometry x="0.0265" y="4" relative="1" as="geometry">
            <mxPoint as="offset" />
          </mxGeometry>
        </mxCell>
        <mxCell id="O8XZWhRuaFC58gjSqEZz-16" value="1" style="rounded=1;whiteSpace=wrap;html=1;fontSize=27;direction=south;" parent="1" vertex="1">
          <mxGeometry x="414" y="210" width="60" height="60" as="geometry" />
        </mxCell>
        <mxCell id="O8XZWhRuaFC58gjSqEZz-17" value="2" style="rounded=1;whiteSpace=wrap;html=1;fontSize=27;" parent="1" vertex="1">
          <mxGeometry x="600" y="210" width="60" height="60" as="geometry" />
        </mxCell>
        <mxCell id="O8XZWhRuaFC58gjSqEZz-18" style="edgeStyle=orthogonalEdgeStyle;rounded=0;orthogonalLoop=1;jettySize=auto;html=1;exitX=0.5;exitY=0;exitDx=0;exitDy=0;entryX=0;entryY=0.5;entryDx=0;entryDy=0;fontSize=24;" parent="1" source="O8XZWhRuaFC58gjSqEZz-12" target="O8XZWhRuaFC58gjSqEZz-12" edge="1">
          <mxGeometry relative="1" as="geometry">
            <Array as="points">
              <mxPoint x="270" y="190" />
              <mxPoint x="220" y="190" />
              <mxPoint x="220" y="240" />
            </Array>
          </mxGeometry>
        </mxCell>
        <mxCell id="O8XZWhRuaFC58gjSqEZz-19" value="1" style="edgeLabel;html=1;align=center;verticalAlign=middle;resizable=0;points=[];fontSize=20;" parent="O8XZWhRuaFC58gjSqEZz-18" vertex="1" connectable="0">
          <mxGeometry x="-0.1571" y="2" relative="1" as="geometry">
            <mxPoint as="offset" />
          </mxGeometry>
        </mxCell>
      </root>
    </mxGraphModel>
  </diagram>
</mxfile>
